# xmcd
#
# Track frame offsets:
#	182
#	13352
#	23977
#	35650
#	45492
#	55265
#	65665
#	77065
#	87165
#	99440
#	111465
#	121752
#	135227
#	152907
#	163190
#	179727
#	185915
#	195167
#
# Disc length: 2695 seconds
#
# Revision: 1
# Processed by: cddbd v1.5.1PL2 Copyright (c) Steve Scherf et al.
# Submitted via: EasyCDDAExtractor 6.0.0.1
#
DISCID=f80a8512
DTITLE=Various Artist - Country Music CM004 - Bluegrass Special
DYEAR=1999
DGENRE=Bluegrass
TTITLE0=Bill Monroe - Orange Blossom Special
TTITLE1=Bill Monroe - Uncle Penn
TTITLE2=Bill Monroe - Bluegrass Breakdown
TTITLE3=Bill Monroe - I Saw The Light
TTITLE4=Bill Monroe - Shady Grove
TTITLE5=Bill Monroe - Shenendoah Breakdown
TTITLE6=Bill Monroe - Muleskinner Blues
TTITLE7=Bill Monroe - Blue Moon Of Kentucky
TTITLE8=Bill Monroe - Can't You Hear Me Calling
TTITLE9=Doc Watson - Tom Dooley
TTITLE10=Doc Watson - Little Stream Of Whiskey
TTITLE11=Doc Watson - Worried Blues
TTITLE12=Doc Watson - Doc's Talkin' Blues
TTITLE13=Doc Watson - Liza Jane
TTITLE14=Doc Watson - Midnight On The Stormy Deep
TTITLE15=Doc Watson - Doc's Guitar
TTITLE16=Doc Watson - In The Pines
TTITLE17=Doc Watson - Mama Blues
EXTD=
EXTT0=
EXTT1=
EXTT2=
EXTT3=
EXTT4=
EXTT5=
EXTT6=
EXTT7=
EXTT8=
EXTT9=
EXTT10=
EXTT11=
EXTT12=
EXTT13=
EXTT14=
EXTT15=
EXTT16=
EXTT17=
PLAYORDER=
